<svg width="10" height="8" viewBox="0 0 10 8" fill="none" xmlns="http://www.w3.org/2000/svg">
<path d="M4.97623 5.90826C5.27529 5.90826 5.59305 5.8148 5.85473 5.6092L9.76123 2.58119V6.80545C9.76123 7.31012 9.35002 7.70264 8.86404 7.70264H1.08842C0.58375 7.70264 0.191231 7.31012 0.191231 6.80545V2.58119L4.07904 5.6092C4.34072 5.8148 4.65848 5.90826 4.97623 5.90826ZM0.490293 2.05783C0.303379 1.9083 0.191231 1.66531 0.191231 1.42232C0.191231 0.936348 0.58375 0.525137 1.08842 0.525137H8.86404C9.35002 0.525137 9.76123 0.936348 9.76123 1.42232C9.76123 1.66531 9.63039 1.9083 9.44348 2.05783L5.4809 5.14191C5.18184 5.36621 4.75193 5.36621 4.45287 5.14191L0.490293 2.05783Z" fill="#19809C"/>
</svg>
