<svg width="9" height="10" viewBox="0 0 9 10" fill="none" xmlns="http://www.w3.org/2000/svg">
<path d="M4.08814 9.67459C3.11619 8.45965 0.947989 5.56248 0.947989 3.91764C0.947989 1.93635 2.53676 0.328887 4.53674 0.328887C6.51803 0.328887 8.12549 1.93635 8.12549 3.91764C8.12549 5.56248 5.93859 8.45965 4.96664 9.67459C4.74234 9.95496 4.31244 9.95496 4.08814 9.67459ZM4.53674 5.11389C5.19094 5.11389 5.73299 4.59053 5.73299 3.91764C5.73299 3.26344 5.19094 2.72139 4.53674 2.72139C3.86385 2.72139 3.34049 3.26344 3.34049 3.91764C3.34049 4.59053 3.86385 5.11389 4.53674 5.11389Z" fill="#19809C"/>
</svg>
