<svg width="10" height="10" viewBox="0 0 10 10" fill="none" xmlns="http://www.w3.org/2000/svg">
<path d="M9.8148 7.56246L9.36621 9.45029C9.31014 9.73066 9.08584 9.91758 8.80547 9.91758C4.09523 9.89889 0.263496 6.06715 0.263496 1.35691C0.263496 1.07654 0.431719 0.852246 0.71209 0.796172L2.59992 0.347578C2.8616 0.291504 3.14197 0.441035 3.25412 0.684024L4.13262 2.72139C4.22607 2.96438 4.17 3.24475 3.96439 3.39428L2.95506 4.2167C3.59057 5.50641 4.63729 6.55313 5.94568 7.18863L6.76811 6.1793C6.91764 5.99238 7.19801 5.91762 7.441 6.01107L9.47836 6.88957C9.72135 7.02041 9.87088 7.30078 9.8148 7.56246Z" fill="#19809C"/>
</svg>
