<svg xmlns="http://www.w3.org/2000/svg" width="11.371" height="15.162" viewBox="0 0 11.371 15.162">
  <path id="receipt-solid" d="M10.613.069,9.475,1.4,7.865.069a.471.471,0,0,0-.569,0L5.685,1.4,4.074.069a.471.471,0,0,0-.569,0L1.9,1.4.758.069A.474.474,0,0,0,0,.448V14.661a.474.474,0,0,0,.758.379L1.9,13.713,3.506,15.04a.471.471,0,0,0,.569,0l1.611-1.327L7.3,15.04a.471.471,0,0,0,.569,0l1.611-1.327,1.137,1.327a.474.474,0,0,0,.758-.379V.448A.474.474,0,0,0,10.613.069ZM9.475,10.634a.238.238,0,0,1-.237.237H2.132a.238.238,0,0,1-.237-.237V10.16a.238.238,0,0,1,.237-.237H9.239a.238.238,0,0,1,.237.237Zm0-2.843a.238.238,0,0,1-.237.237H2.132A.238.238,0,0,1,1.9,7.791V7.317a.238.238,0,0,1,.237-.237H9.239a.238.238,0,0,1,.237.237Zm0-2.843a.238.238,0,0,1-.237.237H2.132A.238.238,0,0,1,1.9,4.948V4.475a.238.238,0,0,1,.237-.237H9.239a.238.238,0,0,1,.237.237Z" transform="translate(0 0.027)" fill="#fff"/>
</svg>
