<svg xmlns="http://www.w3.org/2000/svg" width="12.919" height="17.227" viewBox="0 0 12.919 17.227"><path d="M12.058.082,10.766,1.589,8.935.082a.535.535,0,0,0-.646,0L6.459,1.589,4.629.082a.535.535,0,0,0-.646,0L2.153,1.589.861.082A.538.538,0,0,0,0,.512V16.661a.538.538,0,0,0,.861.431l1.292-1.507,1.83,1.507a.535.535,0,0,0,.646,0l1.83-1.507,1.83,1.507a.535.535,0,0,0,.646,0l1.83-1.507,1.292,1.507a.538.538,0,0,0,.861-.431V.512A.538.538,0,0,0,12.058.082Zm-1.292,12a.27.27,0,0,1-.269.269H2.422a.27.27,0,0,1-.269-.269v-.538a.27.27,0,0,1,.269-.269H10.5a.27.27,0,0,1,.269.269Zm0-3.23a.27.27,0,0,1-.269.269H2.422a.27.27,0,0,1-.269-.269V8.317a.27.27,0,0,1,.269-.269H10.5a.27.27,0,0,1,.269.269Zm0-3.23A.27.27,0,0,1,10.5,5.9H2.422a.27.27,0,0,1-.269-.269V5.088a.27.27,0,0,1,.269-.269H10.5a.27.27,0,0,1,.269.269Z" transform="translate(0 0.027)"/></svg>